<?xml version="1.0" encoding="UTF-8" standalone="no"?>
<!-- Created with Inkscape (http://www.inkscape.org/) -->

<svg
   xmlns:dc="http://purl.org/dc/elements/1.1/"
   xmlns:cc="http://creativecommons.org/ns#"
   xmlns:rdf="http://www.w3.org/1999/02/22-rdf-syntax-ns#"
   xmlns:svg="http://www.w3.org/2000/svg"
   xmlns="http://www.w3.org/2000/svg"
   xmlns:sodipodi="http://sodipodi.sourceforge.net/DTD/sodipodi-0.dtd"
   xmlns:inkscape="http://www.inkscape.org/namespaces/inkscape"
   version="1.1"
   id="svg64"
   width="512"
   height="512"
   viewBox="0 0 512 512"
   sodipodi:docname="television-icon-21.svg"
   inkscape:version="0.92.3 (3ce5693, 2018-03-11)">
  <metadata
     id="metadata70">
    <rdf:RDF>
      <cc:Work
         rdf:about="">
        <dc:format>image/svg+xml</dc:format>
        <dc:type
           rdf:resource="http://purl.org/dc/dcmitype/StillImage" />
        <dc:title />
      </cc:Work>
    </rdf:RDF>
  </metadata>
  <defs
     id="defs68" />
  <sodipodi:namedview
     pagecolor="#ffffff"
     bordercolor="#666666"
     borderopacity="1"
     objecttolerance="10"
     gridtolerance="10"
     guidetolerance="10"
     inkscape:pageopacity="0"
     inkscape:pageshadow="2"
     inkscape:window-width="1299"
     inkscape:window-height="713"
     id="namedview66"
     showgrid="false"
     inkscape:zoom="1.0292969"
     inkscape:cx="82.580645"
     inkscape:cy="256"
     inkscape:window-x="67"
     inkscape:window-y="27"
     inkscape:window-maximized="1"
     inkscape:current-layer="svg64" />
  <path
     style="fill:#dc143c;fill-opacity:1"
     d="m 82.838033,512.4447 c -0.86429,-0.86428 -1.57143,-2.90974 -1.57143,-4.54545 0,-1.82428 -0.94892,-3.92295 -2.45454,-5.42857 l -2.45455,-2.45455 -23.29545,-7.9e-4 -23.29546,-7.9e-4 -6,-2.88058 C 16.399423,493.597 11.181053,488.28998 7.8094934,480.90579 l -2.56163,-5.61034 0.25937,-154.88966 0.25937,-154.88966 2.42291,-4.92291 c 3.2345896,-6.57209 9.0479796,-12.20301 15.9291296,-15.42913 l 5.64796,-2.64796 44.956,-0.29852 c 30.139927,-0.20014 45.382467,-0.65246 46.249997,-1.37245 0.7117,-0.59065 1.294,-2.12711 1.294,-3.41433 0,-1.28723 -11.74924,-25.41963 -26.109417,-53.627561 -28.54383,-56.069117 -29.20488,-57.778881 -24.95539,-64.54628 4.81519,-7.668296 13.48592,-9.207994 20.73164,-3.681409 3.18248,2.427397 7.33606,10.213455 30.744367,57.631703 17.43538,35.318867 27.69168,55.024117 28.82679,55.384377 0.9691,0.30759 2.54951,0.3067 3.51201,-0.002 1.10669,-0.35491 12.04288,-21.05735 29.75,-56.317393 l 28,-55.756138 4.5,-2.312406 c 9.9741,-5.1253681 20.99331,1.534578 20.99845,12.691328 0.001,2.438148 -7.3767,17.958291 -26.49845,55.742738 -14.575,28.800101 -26.5,53.402081 -26.5,54.671081 0,1.26899 0.54,2.84726 1.2,3.50726 0.92236,0.92236 34.9224,1.2 146.95078,1.2 101.09209,0 147.30246,0.33278 150.81493,1.08607 10.47095,2.24561 21.09375,12.10835 25.75683,23.91393 1.67556,4.24203 1.77746,13.15642 1.77746,155.5 0,143.87113 -0.0866,151.2484 -1.8342,156.26154 -2.28763,6.56224 -9.73331,14.89953 -16.30236,18.25455 -4.69643,2.39861 -5.71645,2.50108 -29.704,2.98391 -24.62052,0.49557 -24.85748,0.52091 -26.75,2.86078 -1.05019,1.29844 -1.90944,3.62879 -1.90944,5.17858 0,5.62692 -1.25301,5.96064 -22.3803,5.96064 -21.92828,0 -22.61026,-0.20511 -23.53337,-7.07776 -0.44687,-3.32694 -1.18097,-4.66583 -3.08633,-5.629 -3.66351,-1.85191 -252.33649,-1.85191 -256,0 -1.90536,0.96317 -2.63946,2.30206 -3.08633,5.629 -0.92311,6.87265 -1.60509,7.07776 -23.53337,7.07776 -16.155247,0 -19.489207,-0.25177 -20.808867,-1.57143 z M 393.54872,438.63929 c 3.89148,-1.66505 8.20685,-6.10736 9.65426,-9.93826 1.43739,-3.80437 1.43779,-206.34965 4.2e-4,-212.58495 -1.33708,-5.80024 -4.22818,-9.69779 -8.99895,-12.13166 -3.84318,-1.96064 -5.96845,-1.98306 -163.74373,-1.72736 l -159.850017,0.25907 -3.6731,2.80169 c -7.73054,5.89655 -7.13933,-3.12564 -7.43909,113.52428 -0.17658,68.71728 0.0806,105.62077 0.75339,108.11945 1.32546,4.92238 4.29717,8.62499 8.85488,11.03276 3.57232,1.8872 7.45596,1.93448 162.441937,1.97762 132.67509,0.0369 159.3112,-0.18218 162,-1.33264 z m 74.14465,-63.02738 c 23.08104,-13.52639 14.37709,-47.63082 -12.14465,-47.58601 -15.24645,0.0258 -26.26865,12.11135 -25.0372,27.4527 0.85794,10.68807 7.22293,18.92991 17.1219,22.17064 6.04516,1.97907 14.70772,1.09929 20.05995,-2.03733 z m 0.0732,-105.48756 c 15.25445,-8.47079 17.78326,-29.75022 4.88164,-41.078 -5.05005,-4.434 -9.81092,-6.29583 -16.38164,-6.40634 -7.85293,-0.13208 -14.08614,2.56582 -19.28332,8.34634 -9.2323,10.26854 -9.13655,24.10248 0.23711,34.25984 8.31991,9.0155 19.79536,10.84811 30.54621,4.87816 z"
     id="path74"
     inkscape:connector-curvature="0" />
</svg>
